<svg id="Layer_1" data-name="Layer 1" xmlns="http://www.w3.org/2000/svg" viewBox="0 0 512 512"><defs><style>.cls-1{fill:#666;}</style></defs><path class="cls-1" d="M224,80a48,48,0,0,0-48-48H80A48,48,0,0,0,32,80v96a48,48,0,0,0,48,48h96a48,48,0,0,0,48-48Zm0,256a48,48,0,0,0-48-48H80a48,48,0,0,0-48,48v96a48,48,0,0,0,48,48h96a48,48,0,0,0,48-48ZM288,80v96a48,48,0,0,0,48,48h96a48,48,0,0,0,48-48V80a48,48,0,0,0-48-48H336A48,48,0,0,0,288,80ZM480,336a48,48,0,0,0-48-48H336a48,48,0,0,0-48,48v96a48,48,0,0,0,48,48h96a48,48,0,0,0,48-48Z"/></svg>